# xmcd
#
# Track frame offsets: 
#        150
#        21572
#        46138
#        58564
#        80394
#        107198
#        139238
#        161218
#        190598
#        211397
#        226076
#        250998
#        252070
#        266633
#        282819
#        316772
#        338691
#
# Disc length: 4798 seconds
#
# Revision: 0
# Processed by: cddbd v1.5.2PL0 Copyright (c) Steve Scherf et al.
# Submitted via: ExactAudioCopy v1.1
#
DISCID=eb12bc11
DTITLE=Mandrill - Composite Truth Just Outside Of Town
DYEAR=1973
DGENRE=Funk
TTITLE0=Hang Loose
TTITLE1=Fencewalk
TTITLE2=Hágalo
TTITLE3=Don't Mess With People
TTITLE4=Polk Street Carnival
TTITLE5=Golden Stone
TTITLE6=Out With The Boys
TTITLE7=Moroccan Nights
TTITLE8=Mango Meat
TTITLE9=Never Die
TTITLE10=Love Song
TTITLE11=Interlude
TTITLE12=Fat City Strut
TTITLE13=Two Sisters Of Mystery
TTITLE14=Afrikus Retrospectus
TTITLE15=She Ain't Lookin' Too Tough
TTITLE16=Aspiration Flame
EXTD=
EXTT0=
EXTT1=
EXTT2=
EXTT3=
EXTT4=
EXTT5=
EXTT6=
EXTT7=
EXTT8=
EXTT9=
EXTT10=
EXTT11=
EXTT12=
EXTT13=
EXTT14=
EXTT15=
EXTT16=
PLAYORDER=
